
<svg version="1.0" xmlns="http://www.w3.org/2000/svg"
 width="40.000000pt" height="40.000000pt" viewBox="0 0 215.000000 266.000000"
 preserveAspectRatio="xMidYMid meet">

<g transform="translate(0.000000,266.000000) scale(0.100000,-0.100000)"
fill="#000000" stroke="none">
<path d="M1113 2467 c44 -67 29 -164 -33 -221 -48 -43 -51 -44 -225 -49 -127
-3 -145 -6 -191 -30 -28 -14 -65 -37 -81 -51 -35 -30 -93 -134 -93 -168 0 -41
-21 -56 -137 -97 -132 -47 -145 -53 -200 -98 -27 -21 -54 -58 -75 -101 -30
-60 -33 -75 -33 -157 0 -83 2 -95 34 -153 41 -76 84 -115 171 -156 l65 -31
704 -3 c437 -2 735 1 787 7 177 22 288 122 313 283 19 115 -13 219 -90 297
-54 53 -85 69 -229 116 -63 21 -117 39 -118 41 -2 1 -8 37 -13 80 -18 139 -71
253 -163 345 -91 91 -225 155 -351 167 l-59 5 17 -26z"/>
<path d="M342 993 c-6 -2 -10 -8 -8 -12 3 -4 12 -47 20 -97 8 -49 22 -129 31
-179 9 -49 22 -126 30 -170 61 -357 66 -374 117 -405 26 -15 50 -20 111 -20
l78 0 -6 48 c-7 60 -23 187 -40 327 -8 61 -21 166 -30 235 -30 242 -34 263
-47 271 -14 9 -234 11 -256 2z"/>
<path d="M784 992 c-8 -5 -8 -36 2 -112 42 -358 46 -384 84 -675 5 -38 10 -77
10 -85 0 -13 28 -15 203 -12 l203 3 17 137 c10 75 25 191 33 257 52 400 60
480 50 487 -6 4 -141 8 -301 8 -159 0 -295 -4 -301 -8z"/>
<path d="M1568 989 c-12 -7 -18 -22 -18 -49 0 -21 -4 -61 -10 -87 -5 -26 -14
-91 -20 -143 -6 -52 -17 -147 -25 -210 -9 -63 -22 -173 -30 -244 -9 -71 -18
-133 -21 -137 -10 -16 146 -10 181 7 62 29 64 36 125 419 17 105 37 228 46
275 8 47 16 105 17 130 l2 45 -115 2 c-66 2 -122 -2 -132 -8z"/>
</g>
</svg>
